<mxfile host="app.diagrams.net" agent="Mozilla/5.0 (Windows NT 10.0; Win64; x64; rv:132.0) Gecko/20100101 Firefox/132.0" version="24.8.6">
  <diagram name="Page-1" id="_YB4e4YoaT3FMhfF6Ti6">
    <mxGraphModel dx="830" dy="442" grid="1" gridSize="1" guides="1" tooltips="1" connect="1" arrows="1" fold="1" page="1" pageScale="1" pageWidth="827" pageHeight="1169" background="#0d1117" math="0" shadow="0">
      <root>
        <mxCell id="0" />
        <mxCell id="1" parent="0" />
        <mxCell id="LqvaC12SgwfPoJ_6hcm2-22" value="" style="rounded=1;whiteSpace=wrap;html=1;strokeWidth=1;" parent="1" vertex="1">
          <mxGeometry x="324" y="322" width="426" height="39" as="geometry" />
        </mxCell>
        <mxCell id="LqvaC12SgwfPoJ_6hcm2-21" value="" style="rounded=1;whiteSpace=wrap;html=1;strokeWidth=1;" parent="1" vertex="1">
          <mxGeometry x="546" y="397" width="138" height="55" as="geometry" />
        </mxCell>
        <mxCell id="LqvaC12SgwfPoJ_6hcm2-2" value="&lt;font style=&quot;font-size: 11px;&quot; data-font-src=&quot;https://fonts.googleapis.com/css?family=Kollektif&quot; face=&quot;Kollektif&quot;&gt;Sheen&lt;/font&gt;" style="rounded=1;whiteSpace=wrap;html=1;fillColor=#C7C7C7;fontColor=#333333;strokeColor=#666666;gradientColor=#FFFFFF;gradientDirection=radial;" parent="1" vertex="1">
          <mxGeometry x="324" y="365" width="360" height="27" as="geometry" />
        </mxCell>
        <mxCell id="LqvaC12SgwfPoJ_6hcm2-5" value="&lt;font face=&quot;Kollektif&quot;&gt;2x GGX Metal&lt;br&gt;&lt;/font&gt;" style="rounded=1;whiteSpace=wrap;html=1;fillColor=#fff2cc;strokeColor=#d6b656;gradientColor=#FFCE9F;gradientDirection=west;" parent="1" vertex="1">
          <mxGeometry x="323" y="397" width="96" height="54" as="geometry" />
        </mxCell>
        <mxCell id="LqvaC12SgwfPoJ_6hcm2-10" value="&lt;p style=&quot;line-height: 120%;&quot;&gt;&lt;font style=&quot;font-size: 11px;&quot; face=&quot;Kollektif&quot; data-font-src=&quot;https://fonts.googleapis.com/css?family=Kollektif&quot;&gt;Specular&lt;/font&gt;&lt;/p&gt;" style="rounded=1;whiteSpace=wrap;html=1;fillColor=#f5f5f5;fontColor=#333333;strokeColor=#666666;" parent="1" vertex="1">
          <mxGeometry x="424" y="397" width="116" height="24" as="geometry" />
        </mxCell>
        <mxCell id="LqvaC12SgwfPoJ_6hcm2-11" value="&lt;font style=&quot;font-size: 11px;&quot; data-font-src=&quot;https://fonts.googleapis.com/css?family=Kollektif&quot; face=&quot;Kollektif&quot;&gt;Diffuse&lt;/font&gt;" style="rounded=1;whiteSpace=wrap;html=1;fillColor=#d5e8d4;strokeColor=#82b366;" parent="1" vertex="1">
          <mxGeometry x="424" y="425" width="116" height="26" as="geometry" />
        </mxCell>
        <mxCell id="LqvaC12SgwfPoJ_6hcm2-12" value="&lt;font style=&quot;font-size: 10px;&quot; data-font-src=&quot;https://fonts.googleapis.com/css?family=Kollektif&quot; face=&quot;Kollektif&quot;&gt;Transmission&lt;/font&gt;" style="rounded=1;whiteSpace=wrap;html=1;fillColor=#FFFFFF;strokeColor=none;gradientColor=#FFFFFF;gradientDirection=south;arcSize=36;" parent="1" vertex="1">
          <mxGeometry x="546" y="397" width="138" height="22" as="geometry" />
        </mxCell>
        <mxCell id="LqvaC12SgwfPoJ_6hcm2-13" value="&lt;font style=&quot;font-size: 9px;&quot; data-font-src=&quot;https://fonts.googleapis.com/css?family=Kollektif&quot; face=&quot;Kollektif&quot;&gt;Homogeneous &lt;/font&gt;&lt;font style=&quot;font-size: 9px;&quot; data-font-src=&quot;https://fonts.googleapis.com/css?family=Kollektif&quot; face=&quot;Kollektif&quot;&gt;Volumetric Absorption&lt;/font&gt;" style="rounded=1;whiteSpace=wrap;html=1;fillColor=#A9C4EB;strokeColor=none;gradientColor=#FFFFFF;gradientDirection=north;arcSize=27;" parent="1" vertex="1">
          <mxGeometry x="546" y="419" width="138" height="33" as="geometry" />
        </mxCell>
        <mxCell id="LqvaC12SgwfPoJ_6hcm2-14" value="&lt;font style=&quot;font-size: 11px;&quot; face=&quot;Kollektif&quot;&gt;Emission&lt;/font&gt;" style="rounded=1;whiteSpace=wrap;html=1;fillColor=#fff2cc;strokeColor=#d6b656;" parent="1" vertex="1">
          <mxGeometry x="690" y="366" width="60" height="86" as="geometry" />
        </mxCell>
        <mxCell id="LqvaC12SgwfPoJ_6hcm2-18" value="" style="rounded=1;whiteSpace=wrap;html=1;fillColor=none;fontColor=#333333;strokeColor=#9F9F9F;strokeWidth=1;" parent="1" vertex="1">
          <mxGeometry x="546" y="397" width="138" height="55" as="geometry" />
        </mxCell>
        <mxCell id="LqvaC12SgwfPoJ_6hcm2-20" value="" style="group" parent="1" vertex="1" connectable="0">
          <mxGeometry x="324" y="323" width="426" height="38" as="geometry" />
        </mxCell>
        <mxCell id="LqvaC12SgwfPoJ_6hcm2-16" value="&lt;div style=&quot;font-size: 11px;&quot;&gt;&lt;font style=&quot;font-size: 11px;&quot; data-font-src=&quot;https://fonts.googleapis.com/css?family=Kollektif&quot; face=&quot;Kollektif&quot;&gt;Coat&lt;/font&gt;&lt;/div&gt;" style="rounded=1;whiteSpace=wrap;html=1;gradientDirection=radial;glass=0;rotation=0;strokeWidth=0;perimeterSpacing=1;strokeColor=none;" parent="LqvaC12SgwfPoJ_6hcm2-20" vertex="1">
          <mxGeometry width="426" height="20" as="geometry" />
        </mxCell>
        <mxCell id="LqvaC12SgwfPoJ_6hcm2-17" value="&lt;div style=&quot;font-size: 11px;&quot;&gt;&lt;font style=&quot;font-size: 11px;&quot; data-font-src=&quot;https://fonts.googleapis.com/css?family=Kollektif&quot; face=&quot;Kollektif&quot;&gt;Coat Medium Absorption&lt;br&gt;&lt;/font&gt;&lt;/div&gt;" style="rounded=1;whiteSpace=wrap;html=1;gradientDirection=south;gradientColor=#EF958F;perimeterSpacing=0;glass=1;imageWidth=34;imageHeight=3;fillColor=default;strokeWidth=0;arcSize=26;strokeColor=none;" parent="LqvaC12SgwfPoJ_6hcm2-20" vertex="1">
          <mxGeometry y="18" width="426" height="20" as="geometry" />
        </mxCell>
        <mxCell id="LqvaC12SgwfPoJ_6hcm2-19" value="" style="rounded=1;whiteSpace=wrap;html=1;fillColor=none;fontColor=#333333;strokeColor=#666666;strokeWidth=1;" parent="1" vertex="1">
          <mxGeometry x="324" y="322" width="426" height="39" as="geometry" />
        </mxCell>
      </root>
    </mxGraphModel>
  </diagram>
</mxfile>
